<?xml version="1.0" encoding="UTF-8"?>
<svg version="1.1" xmlns="http://www.w3.org/2000/svg" width="512" height="512">
<path d="M0 0 C168.96 0 337.92 0 512 0 C512 168.96 512 337.92 512 512 C343.04 512 174.08 512 0 512 C0 343.04 0 174.08 0 0 Z " fill="#FEFEFE" transform="translate(0,0)"/>
<path d="M0 0 C2.25224811 0.68624526 4.50924946 1.22394679 6.80444336 1.74560547 C19.3563765 5.52106882 31.2204427 14.4330822 41.24194336 22.68310547 C41.86327148 23.17939453 42.48459961 23.67568359 43.12475586 24.18701172 C44.24194336 25.68310547 44.24194336 25.68310547 44.01470947 27.55238342 C43.08706082 30.11015789 41.92633108 31.36058044 39.99487305 33.27075195 C39.31036072 33.95503769 38.62584839 34.63932343 37.92059326 35.34434509 C37.17585754 36.07359695 36.43112183 36.80284882 35.66381836 37.55419922 C34.9002301 38.31354263 34.13664185 39.07288605 33.34991455 39.85523987 C30.90420466 42.28415495 28.44829708 44.70245956 25.99194336 47.12060547 C24.35193421 48.74556421 22.71260308 50.37120756 21.07397461 51.99755859 C18.05570236 54.991335 15.03358996 57.98111157 12.0065918 60.96606445 C5.95826592 66.83140786 5.95826592 66.83140786 0.36694336 73.12060547 C-2.22069868 76.18719411 -5.02573147 78.73144559 -8.10571289 81.29248047 C-11.81556484 84.41471993 -14.99298262 87.94322989 -18.13305664 91.62060547 C-20.92308052 94.84732873 -23.86165259 97.60953056 -27.14086914 100.32763672 C-31.57194996 104.04161026 -35.29164739 108.38967849 -39.04321289 112.76513672 C-40.75805664 114.68310547 -40.75805664 114.68310547 -43.69555664 117.37060547 C-45.97714199 119.51205415 -45.97714199 119.51205415 -46.19555664 122.37060547 C-45.94779161 124.86892838 -45.94779161 124.86892838 -43.75805664 126.68310547 C-40.34688332 127.21819148 -37.88866272 127.38737884 -34.88305664 125.51513672 C-31.36653726 122.56702025 -28.60927851 119.27012653 -25.75805664 115.68310547 C-23.77545238 113.9957827 -21.77482244 112.32944489 -19.75805664 110.68310547 C-16.95951426 108.02449021 -14.40360236 105.27631162 -11.94555664 102.30810547 C-9.79111892 99.7570617 -7.54573189 97.55345099 -5.00056458 95.39414978 C-1.05496664 91.98172962 2.64776542 88.39397899 6.30957031 84.68139648 C6.96606567 84.02022827 7.62256104 83.35906006 8.2989502 82.67785645 C9.71040941 81.25597614 11.12075829 79.8329929 12.53008461 78.40899849 C14.76950725 76.14733901 17.01305647 73.88984951 19.25785828 71.63352966 C25.63538966 65.22261016 32.00874482 58.80758625 38.37158203 52.38208008 C42.27758075 48.43820426 46.19105087 44.50187221 50.10924339 40.57011223 C51.59063643 39.08072561 53.06926116 37.58857973 54.54491615 36.09350777 C64.00528664 26.51082184 73.2960478 17.54985422 85.30444336 11.18310547 C86.20291992 10.69841797 87.10139648 10.21373047 88.02709961 9.71435547 C90.24194336 8.68310547 90.24194336 8.68310547 92.24194336 8.68310547 C92.24194336 8.02310547 92.24194336 7.36310547 92.24194336 6.68310547 C123.91642403 -5.89332466 153.91867452 -11.09133843 187.24194336 -1.31689453 C188.60739908 -0.94292622 189.97325458 -0.57041295 191.33959961 -0.19970703 C199.51599996 2.13640736 199.51599996 2.13640736 202.14038086 4.11279297 C204.41249049 5.81054031 206.74183998 6.78744399 209.35571289 7.85742188 C212.60234131 9.27860973 215.6240693 11.08264583 218.67944336 12.87060547 C219.3155957 13.23863281 219.95174805 13.60666016 220.60717773 13.98583984 C222.15412421 14.88144043 223.69832998 15.78177227 225.24194336 16.68310547 C225.24194336 17.34310547 225.24194336 18.00310547 225.24194336 18.68310547 C225.90709961 18.86873047 226.57225586 19.05435547 227.25756836 19.24560547 C231.54920964 21.31278347 234.5800957 24.40033958 237.99194336 27.68310547 C238.70278076 28.36155518 239.41361816 29.04000488 240.14599609 29.73901367 C249.01655117 38.27139212 256.74728077 46.51710304 262.24194336 57.68310547 C262.24194336 58.34310547 262.24194336 59.00310547 262.24194336 59.68310547 C262.90194336 59.68310547 263.56194336 59.68310547 264.24194336 59.68310547 C268.58395498 68.2626817 271.62052127 76.69314743 274.16381836 85.93310547 C275.10669123 89.4947744 275.10669123 89.4947744 276.24047852 92.04418945 C279.68823053 101.12920933 279.62847862 111.52327169 279.61694336 121.12060547 C279.61750732 122.32330078 279.61807129 123.52599609 279.61865234 124.76513672 C279.46588154 137.40086811 277.3325454 149.46500556 274.24194336 161.68310547 C273.58194336 161.68310547 272.92194336 161.68310547 272.24194336 161.68310547 C272.33475586 163.01341797 272.33475586 163.01341797 272.42944336 164.37060547 C272.21311408 168.19242282 271.30886598 169.50890288 269.24194336 172.68310547 C268.64254427 174.05117839 268.06100923 175.42713957 267.49194336 176.80810547 C259.7190197 194.50824625 245.73455965 212.26436333 230.24194336 223.68310547 C229.33444336 224.44623047 228.42694336 225.20935547 227.49194336 225.99560547 C225.24194336 227.68310547 225.24194336 227.68310547 222.49194336 228.74560547 C221.74944336 229.05498047 221.00694336 229.36435547 220.24194336 229.68310547 C219.91194336 230.67310547 219.58194336 231.66310547 219.24194336 232.68310547 C217.61889648 233.69458008 217.61889648 233.69458008 215.52319336 234.58544922 C214.75491211 234.91867187 213.98663086 235.25189453 213.19506836 235.59521484 C212.38553711 235.93359375 211.57600586 236.27197266 210.74194336 236.62060547 C209.57405273 237.12237305 209.57405273 237.12237305 208.38256836 237.63427734 C206.79457612 238.3165356 205.20409751 238.99303242 203.61132812 239.6640625 C202.07793394 240.3235563 200.55393529 241.00553527 199.04248047 241.71386719 C182.94693823 249.24687665 165.73594214 251.26204421 148.17944336 251.18310547 C147.08516525 251.1805072 147.08516525 251.1805072 145.96878052 251.17785645 C138.19071428 251.13003395 130.75489268 250.82130414 123.24194336 248.68310547 C122.45279541 248.48620117 121.66364746 248.28929687 120.85058594 248.08642578 C99.51449413 242.75085179 81.3882216 233.85377777 65.24194336 218.68310547 C66.65231748 215.47933056 68.32922618 213.35857311 70.81654358 210.90837097 C71.5582933 210.17254288 72.30004303 209.43671478 73.06427002 208.67858887 C73.87837341 207.88110229 74.69247681 207.08361572 75.53125 206.26196289 C76.38824997 205.41430862 77.24524994 204.56665436 78.1282196 203.6933136 C79.99014967 201.85239268 81.85374009 200.01333398 83.72007942 198.17690086 C86.67232816 195.27085056 89.61474913 192.35498612 92.55528259 189.43708801 C100.9173432 181.1418362 109.28754395 172.85492639 117.67871094 164.58911133 C122.31503738 160.02188127 126.9405333 155.44396973 131.55429548 150.85394365 C134.47261014 147.95180533 137.40356744 145.0632862 140.34453404 142.18411481 C142.60250257 139.96575086 144.84072754 137.7276124 147.08203125 135.49243164 C147.89815887 134.70101776 148.7142865 133.90960388 149.55514526 133.09420776 C154.14456075 128.61467915 154.14456075 128.61467915 156.31443787 122.75752258 C156.4623753 119.76896547 156.4623753 119.76896547 155.24194336 117.68310547 C152.81744388 116.47085573 151.01812774 116.3947851 148.3579998 116.84116554 C143.32554798 118.84348553 139.74198678 123.43334979 136.02734375 127.24829102 C135.01598135 128.26462369 134.00327502 129.27962049 132.98933411 130.29338074 C130.8125954 132.47552171 128.64569018 134.66682611 126.48597908 136.86581993 C123.06612092 140.34786639 119.62551061 143.80890634 116.18199158 147.26753235 C110.73308632 152.74540269 105.29880113 158.23752478 99.87035507 163.73566324 C90.1614567 173.56830822 80.4283295 183.37693988 70.68938631 193.1798175 C67.27594072 196.61682239 63.8689736 200.06008458 60.46739781 203.50883615 C58.34281101 205.66124868 56.2141078 207.80955773 54.08450127 209.95700264 C53.10396145 210.94760646 52.12519381 211.93996838 51.14842224 212.93428802 C25.2759739 239.26365341 -7.49158016 250.91365307 -43.90979004 251.26904297 C-69.09135189 251.35002483 -93.42572407 243.78372674 -113.75805664 228.68310547 C-114.4915332 228.14041016 -115.22500977 227.59771484 -115.98071289 227.03857422 C-130.67058494 215.87628722 -145.12129193 201.7986686 -152.75805664 184.68310547 C-152.75805664 184.02310547 -152.75805664 183.36310547 -152.75805664 182.68310547 C-153.41805664 182.68310547 -154.07805664 182.68310547 -154.75805664 182.68310547 C-166.63162308 153.91724863 -174.44840964 123.67323219 -165.75805664 92.68310547 C-165.55937988 91.92368652 -165.36070312 91.16426758 -165.15600586 90.38183594 C-159.30186941 68.07472574 -149.27607636 49.74385707 -133.17163086 33.14794922 C-131.92307917 31.85411327 -130.69984294 30.53595099 -129.48071289 29.21435547 C-123.29786162 22.67457983 -116.1833246 17.69407844 -108.75805664 12.68310547 C-107.92145508 12.10818359 -107.08485352 11.53326172 -106.22290039 10.94091797 C-102.72018692 8.62323466 -101.06134894 7.68310547 -96.75805664 7.68310547 C-96.75805664 7.02310547 -96.75805664 6.36310547 -96.75805664 5.68310547 C-94.26205361 4.69258 -91.76200867 3.7156649 -89.25805664 2.74560547 C-88.56196289 2.4678125 -87.86586914 2.19001953 -87.14868164 1.90380859 C-82.31613897 0.04685933 -77.91737776 -0.85790087 -72.75805664 -1.31689453 C-72.75805664 -1.97689453 -72.75805664 -2.63689453 -72.75805664 -3.31689453 C-48.66993383 -8.81527039 -23.55618476 -7.49036217 0 0 Z " fill="#5EBCEA" transform="translate(200.758056640625,133.31689453125)"/>
</svg>
